# xmcd CD database file
#
# Track frame offsets:
#	150
#	13255
#	30543
#	46230
#	62500
#	77498
#	96618
#	110668
#	123728
#	141190
#	157703
#	169655
#
# Disc length: 2458 seconds
#
# Revision: 1
# Processed by: cddbd v1.5.1PL0 Copyright (c) Steve Scherf et al.
# Submitted via: CDex 1.51
#
DISCID=9909980c
DTITLE=Peter Gallway - Peter Gallway
DYEAR=1972
DGENRE=Folk/Rock
TTITLE0=Watch Yourself
TTITLE1=Decidedly Fun
TTITLE2=Twelve Day Lover
TTITLE3=My Sweetheart Was My Friend
TTITLE4=Running, Walking, Kicking the Ball
TTITLE5=The Good Lady of Toronto
TTITLE6=Moonsong
TTITLE7=Come Forever Now, My Son
TTITLE8=Come on In
TTITLE9=Harmony Grits
TTITLE10=You
TTITLE11=Mr Mercybones Jones
EXTD=YEAR: 1972
EXTT0=
EXTT1=
EXTT2=
EXTT3=
EXTT4=
EXTT5=
EXTT6=
EXTT7=
EXTT8=
EXTT9=
EXTT10=
EXTT11=
PLAYORDER=
